<svg width="69" height="37" viewBox="0 0 69 37" fill="none" xmlns="http://www.w3.org/2000/svg">
<path d="M35.5928 10.9728C37.3367 10.9728 38.9703 11.3038 40.4936 11.9658C42.0168 12.6278 43.3634 13.5325 44.5334 14.68C45.7034 15.8274 46.6085 17.1624 47.2487 18.685C47.8889 20.2076 48.22 21.8515 48.2421 23.6168C48.2421 25.3601 47.911 26.993 47.2487 28.5156C46.5864 30.0382 45.6813 31.3842 44.5334 32.5537C43.3855 33.7233 42.0499 34.628 40.5267 35.2679C39.0035 35.9078 37.3588 36.2388 35.5928 36.2609C34.4228 36.2609 33.2859 36.1064 32.1821 35.7975C31.0783 35.4886 30.0518 35.0472 29.1025 34.4735C28.1533 33.8998 27.2702 33.1937 26.4534 32.3551C25.6366 31.5166 24.9633 30.5788 24.4335 29.5417C23.8816 30.5788 23.2083 31.5056 22.4136 32.322C21.6189 33.1385 20.7358 33.8446 19.7645 34.4404C18.7932 35.0362 17.7556 35.4886 16.6518 35.7975C15.5481 36.1064 14.4112 36.2609 13.2412 36.2609C11.5413 36.2609 9.9298 35.9409 8.40658 35.301C6.88336 34.6611 5.53675 33.7674 4.36674 32.6199C3.19673 31.4725 2.28059 30.1595 1.61832 28.6811C0.956045 27.2026 0.613873 25.5808 0.591797 23.8154V2.83031C0.591797 2.14625 0.845667 1.56149 1.35341 1.07603C1.86115 0.59057 2.44615 0.347839 3.10842 0.347839C3.77069 0.347839 4.3557 0.59057 4.86344 1.07603C5.37118 1.56149 5.63609 2.14625 5.65816 2.83031V13.4884C6.76194 12.6719 7.95403 12.0541 9.23442 11.6348C10.5148 11.2155 11.8504 10.9949 13.2412 10.9728C14.4112 10.9728 15.5481 11.1273 16.6518 11.4362C17.7556 11.7451 18.7932 12.1865 19.7645 12.7602C20.7358 13.3339 21.6189 14.04 22.4136 14.8786C23.2083 15.7171 23.8816 16.6549 24.4335 17.692C24.9854 16.6549 25.6587 15.7281 26.4534 14.9117C27.2482 14.0952 28.1201 13.3891 29.0694 12.7933C30.0187 12.1975 31.0562 11.7451 32.1821 11.4362C33.3079 11.1273 34.4448 10.9728 35.5928 10.9728ZM13.2412 31.1966C14.2787 31.1966 15.2611 30.9981 16.1883 30.6009C17.1154 30.2037 17.9212 29.663 18.6055 28.979C19.2899 28.2949 19.8307 27.4895 20.2281 26.5627C20.6255 25.6359 20.8241 24.654 20.8241 23.6168C20.8241 22.5577 20.6255 21.5757 20.2281 20.671C19.8307 19.7663 19.2899 18.9608 18.6055 18.2547C17.9212 17.5486 17.1265 17.008 16.2214 16.6328C15.3163 16.2577 14.3229 16.0591 13.2412 16.037C12.1815 16.037 11.1992 16.2356 10.2941 16.6328C9.38895 17.03 8.58319 17.5707 7.87677 18.2547C7.17034 18.9388 6.62949 19.7332 6.2542 20.6379C5.87892 21.5426 5.68024 22.5356 5.65816 23.6168C5.65816 24.654 5.85684 25.6359 6.2542 26.5627C6.65157 27.4895 7.19242 28.2949 7.87677 28.979C8.56111 29.663 9.36687 30.2037 10.2941 30.6009C11.2212 30.9981 12.2036 31.1966 13.2412 31.1966ZM35.5928 31.1966C36.6303 31.1966 37.6127 30.9981 38.5399 30.6009C39.467 30.2037 40.2728 29.663 40.9571 28.979C41.6415 28.2949 42.1823 27.4895 42.5797 26.5627C42.9771 25.6359 43.1758 24.654 43.1758 23.6168C43.1758 22.5577 42.9771 21.5757 42.5797 20.671C42.1823 19.7663 41.6415 18.9608 40.9571 18.2547C40.2728 17.5486 39.4781 17.008 38.573 16.6328C37.6679 16.2577 36.6745 16.0591 35.5928 16.037C34.5552 16.037 33.5728 16.2356 32.6457 16.6328C31.7185 17.03 30.9127 17.5707 30.2284 18.2547C29.544 18.9388 29.0032 19.7442 28.6058 20.671C28.2085 21.5978 28.0098 22.5797 28.0098 23.6168C28.0098 24.654 28.2085 25.6359 28.6058 26.5627C29.0032 27.4895 29.544 28.2949 30.2284 28.979C30.9127 29.663 31.7185 30.2037 32.6457 30.6009C33.5728 30.9981 34.5552 31.1966 35.5928 31.1966ZM67.8784 32.0241C68.2316 32.4434 68.4082 32.9399 68.4082 33.5136C68.4082 34.2639 68.1323 34.8707 67.5804 35.3341C67.0285 35.7975 66.3773 36.0292 65.6267 36.0292C65.2293 36.0292 64.843 35.952 64.4677 35.7975C64.0924 35.643 63.7613 35.4003 63.4743 35.0693L57.5801 27.8205L51.6528 35.0693C51.3879 35.3782 51.0678 35.6099 50.6925 35.7644C50.3172 35.9189 49.9199 36.0071 49.5004 36.0292C48.7719 36.0292 48.1317 35.7975 47.5798 35.3341C47.028 34.8707 46.741 34.2639 46.7189 33.5136C46.7189 32.984 46.8955 32.4875 47.2487 32.0241L54.1032 23.5837L47.2487 15.1434C46.8955 14.68 46.7189 14.1835 46.7189 13.6539C46.7189 13.2787 46.7962 12.9367 46.9507 12.6278C47.1052 12.3189 47.3039 12.0541 47.5467 11.8334C47.7896 11.6127 48.0876 11.4472 48.4408 11.3369C48.794 11.2266 49.1362 11.1604 49.4673 11.1383C49.8647 11.1383 50.262 11.2155 50.6594 11.37C51.0568 11.5245 51.3879 11.7672 51.6528 12.0982L57.5801 19.3801L63.4743 12.0982C63.7172 11.7893 64.0483 11.5576 64.4677 11.4031C64.8872 11.2486 65.2956 11.1604 65.6929 11.1383C66.0461 11.1383 66.3773 11.1935 66.6863 11.3038C66.9954 11.4141 67.2824 11.5907 67.5473 11.8334C67.8122 12.0761 68.0219 12.352 68.1764 12.6609C68.331 12.9698 68.4082 13.3008 68.4082 13.6539C68.4082 14.1835 68.2316 14.68 67.8784 15.1434L60.9908 23.5837L67.8784 32.0241Z" fill="black"/>
</svg>
