<svg width="131" height="45" viewBox="0 0 131 45" fill="none" xmlns="http://www.w3.org/2000/svg">
<g filter="url(#filter0_d_10_50)">
<rect x="4" width="123" height="37" rx="10" fill="white"/>
</g>
<path d="M41.0833 17.5C41.0833 9.44999 34.55 2.91666 26.5 2.91666C18.45 2.91666 11.9167 9.44999 11.9167 17.5C11.9167 24.5583 16.9333 30.4354 23.5833 31.7917V21.875H20.6667V17.5H23.5833V13.8542C23.5833 11.0396 25.8729 8.74999 28.6875 8.74999H32.3333V13.125H29.4167C28.6146 13.125 27.9583 13.7812 27.9583 14.5833V17.5H32.3333V21.875H27.9583V32.0104C35.3229 31.2812 41.0833 25.0687 41.0833 17.5Z" fill="#3E8ACF"/>
<path d="M54.772 22H53.302V16.526H52.182V15.238H53.302V14.86C53.302 13.39 54.156 12.522 55.444 12.522C56.046 12.522 56.648 12.676 57.068 13.11L56.494 14.02C56.298 13.838 56.046 13.726 55.71 13.726C55.136 13.726 54.772 14.104 54.772 14.86V15.238H56.144V16.526H54.772V22ZM62.8586 22H61.3886V21.272C60.8846 21.846 60.1006 22.168 59.2046 22.168C58.0986 22.168 56.8526 21.426 56.8526 19.928C56.8526 18.374 58.0986 17.73 59.2046 17.73C60.1146 17.73 60.8986 18.024 61.3886 18.598V17.59C61.3886 16.806 60.7446 16.33 59.8066 16.33C59.0506 16.33 58.3926 16.61 57.8046 17.184L57.2026 16.162C57.9866 15.42 58.9666 15.07 60.0446 15.07C61.5426 15.07 62.8586 15.7 62.8586 17.52V22ZM59.7786 21.16C60.4226 21.16 61.0526 20.922 61.3886 20.46V19.438C61.0526 18.976 60.4226 18.738 59.7786 18.738C58.9526 18.738 58.3366 19.214 58.3366 19.956C58.3366 20.684 58.9526 21.16 59.7786 21.16ZM67.8445 22.168C65.7865 22.168 64.3445 20.67 64.3445 18.612C64.3445 16.568 65.7865 15.07 67.8445 15.07C69.1605 15.07 69.9585 15.63 70.4345 16.274L69.4685 17.17C69.0905 16.638 68.5725 16.372 67.9145 16.372C66.6825 16.372 65.8705 17.296 65.8705 18.612C65.8705 19.928 66.6825 20.866 67.9145 20.866C68.5725 20.866 69.0905 20.586 69.4685 20.068L70.4345 20.964C69.9585 21.608 69.1605 22.168 67.8445 22.168ZM74.8455 22.168C72.8155 22.168 71.3035 20.754 71.3035 18.612C71.3035 16.652 72.7315 15.07 74.7335 15.07C76.7635 15.07 78.0655 16.624 78.0655 18.752V19.102H72.8435C72.9555 20.124 73.7255 20.964 74.9995 20.964C75.6575 20.964 76.4415 20.698 76.9175 20.222L77.5895 21.188C76.9175 21.832 75.9235 22.168 74.8455 22.168ZM76.6375 18.066C76.6095 17.268 76.0635 16.274 74.7335 16.274C73.4735 16.274 72.8995 17.24 72.8295 18.066H76.6375ZM80.9865 19.97C81.3085 20.474 82.0365 20.866 82.7225 20.866C83.8985 20.866 84.6405 19.942 84.6405 18.626C84.6405 17.31 83.8985 16.372 82.7225 16.372C82.0365 16.372 81.3085 16.792 80.9865 17.296V19.97ZM80.9865 22H79.5165V12.662H80.9865V16.176C81.5185 15.462 82.3025 15.07 83.1565 15.07C84.8925 15.07 86.1525 16.442 86.1525 18.626C86.1525 20.852 84.8785 22.168 83.1565 22.168C82.2745 22.168 81.5045 21.748 80.9865 21.076V22ZM90.7032 22.168C88.5612 22.168 87.2312 20.558 87.2312 18.612C87.2312 16.68 88.5612 15.07 90.7032 15.07C92.8732 15.07 94.1892 16.68 94.1892 18.612C94.1892 20.558 92.8732 22.168 90.7032 22.168ZM90.7032 20.866C91.9632 20.866 92.6632 19.816 92.6632 18.612C92.6632 17.422 91.9632 16.372 90.7032 16.372C89.4572 16.372 88.7572 17.422 88.7572 18.612C88.7572 19.816 89.4572 20.866 90.7032 20.866ZM98.7286 22.168C96.5866 22.168 95.2566 20.558 95.2566 18.612C95.2566 16.68 96.5866 15.07 98.7286 15.07C100.899 15.07 102.215 16.68 102.215 18.612C102.215 20.558 100.899 22.168 98.7286 22.168ZM98.7286 20.866C99.9886 20.866 100.689 19.816 100.689 18.612C100.689 17.422 99.9886 16.372 98.7286 16.372C97.4826 16.372 96.7826 17.422 96.7826 18.612C96.7826 19.816 97.4826 20.866 98.7286 20.866ZM110.03 22H108.182L106.11 19.214L105.172 20.18V22H103.702V12.662H105.172V18.5L108.154 15.238H109.974L107.16 18.304L110.03 22Z" fill="#393939"/>
<defs>
<filter id="filter0_d_10_50" x="0" y="0" width="131" height="45" filterUnits="userSpaceOnUse" color-interpolation-filters="sRGB">
<feFlood flood-opacity="0" result="BackgroundImageFix"/>
<feColorMatrix in="SourceAlpha" type="matrix" values="0 0 0 0 0 0 0 0 0 0 0 0 0 0 0 0 0 0 127 0" result="hardAlpha"/>
<feOffset dy="4"/>
<feGaussianBlur stdDeviation="2"/>
<feComposite in2="hardAlpha" operator="out"/>
<feColorMatrix type="matrix" values="0 0 0 0 0 0 0 0 0 0 0 0 0 0 0 0 0 0 0.25 0"/>
<feBlend mode="normal" in2="BackgroundImageFix" result="effect1_dropShadow_10_50"/>
<feBlend mode="normal" in="SourceGraphic" in2="effect1_dropShadow_10_50" result="shape"/>
</filter>
</defs>
</svg>
