<svg width="35" height="35" viewBox="0 0 35 35" fill="none" xmlns="http://www.w3.org/2000/svg">
<path d="M13.2712 3.76749C10.4859 4.74943 8.08381 6.61319 6.41783 9.08501C4.75186 11.5568 3.90978 14.5064 4.0153 17.5005C4.12082 20.4946 5.16838 23.3754 7.00409 25.7198C8.8398 28.0642 11.3669 29.7485 14.2142 30.5255C16.5226 31.1308 18.9411 31.1574 21.2619 30.6029C23.3642 30.123 25.3079 29.0965 26.9026 27.6239C28.5623 26.0444 29.767 24.0351 30.3872 21.812C31.0611 19.3944 31.181 16.852 30.7378 14.3799H17.7751V19.8444H25.2822C25.1322 20.716 24.8107 21.5478 24.3369 22.2901C23.8632 23.0324 23.2469 23.67 22.525 24.1646C21.6084 24.7811 20.575 25.1958 19.4912 25.3819C18.4044 25.5874 17.2895 25.5874 16.2026 25.3819C15.101 25.1507 14.0588 24.6887 13.1427 24.0252C11.6708 22.9664 10.5656 21.4621 9.98479 19.7271C9.39434 17.9596 9.39434 16.0434 9.98479 14.2759C10.3982 13.037 11.0816 11.9089 11.9841 10.976C13.0168 9.88873 14.3243 9.11156 15.7631 8.72973C17.2018 8.3479 18.7163 8.37617 20.1403 8.81145C21.2527 9.15831 22.27 9.76464 23.1109 10.582C23.9574 9.72625 24.8024 8.86826 25.6459 8.00805C26.0815 7.54548 26.5563 7.10505 26.9853 6.63141C25.7015 5.4175 24.1947 4.47286 22.5512 3.85159C19.5581 2.74717 16.2832 2.71749 13.2712 3.76749Z" fill="white"/>
<path d="M13.2712 3.7675C16.283 2.71678 19.5579 2.74568 22.5512 3.84939C24.1951 4.47487 25.7012 5.42406 26.9832 6.64249C26.5476 7.11612 26.0881 7.55877 25.6438 8.01912C24.7988 8.87638 23.9545 9.73069 23.1109 10.582C22.27 9.76465 21.2528 9.15832 20.1403 8.81146C18.7168 8.37465 17.2024 8.34475 15.7632 8.72501C14.3241 9.10528 13.0158 9.88103 11.9819 10.9671C11.0795 11.9001 10.3961 13.0281 9.98265 14.2671L5.4679 10.7148C7.0839 7.4582 9.88192 4.96712 13.2712 3.7675Z" fill="#E33629"/>
<path d="M4.27005 14.2339C4.51254 13.0117 4.91541 11.8281 5.46789 10.7148L9.98264 14.2759C9.39219 16.0435 9.39219 17.9596 9.98264 19.7271C8.47845 20.9075 6.97353 22.0938 5.46789 23.286C4.08526 20.4892 3.66358 17.3025 4.27005 14.2339Z" fill="#F8BD00"/>
<path d="M17.7751 14.3777H30.7378C31.181 16.8498 31.0611 19.3922 30.3872 21.8098C29.767 24.0329 28.5623 26.0423 26.9026 27.6217C25.4456 26.4664 23.982 25.32 22.525 24.1647C23.2474 23.6695 23.8639 23.0313 24.3377 22.2881C24.8115 21.545 25.1328 20.7123 25.2822 19.84H17.7751C17.7729 18.0207 17.7751 16.1992 17.7751 14.3777Z" fill="#587DBD"/>
<path d="M5.4657 23.286C6.97134 22.1056 8.47626 20.9193 9.98045 19.7271C10.5624 21.4627 11.6692 22.9671 13.1427 24.0252C14.0617 24.6856 15.1061 25.1439 16.2092 25.3709C17.2961 25.5763 18.4109 25.5763 19.4978 25.3709C20.5816 25.1847 21.615 24.77 22.5316 24.1536C23.9886 25.3089 25.4521 26.4553 26.9091 27.6106C25.3147 29.0841 23.371 30.1113 21.2684 30.5919C18.9477 31.1463 16.5292 31.1197 14.2208 30.5144C12.3951 30.019 10.6897 29.1457 9.21166 27.9493C7.64734 26.6869 6.3696 25.0962 5.4657 23.286Z" fill="#319F43"/>
</svg>
