<svg width="131" height="45" viewBox="0 0 131 45" fill="none" xmlns="http://www.w3.org/2000/svg">
<g filter="url(#filter0_d_10_51)">
<rect x="4" width="123" height="37" rx="10" fill="white"/>
</g>
<path d="M57.474 22.182C54.772 22.182 52.574 20.264 52.574 17.338C52.574 14.412 54.772 12.508 57.474 12.508C59.294 12.508 60.484 13.376 61.24 14.454L59.896 15.21C59.406 14.51 58.524 13.964 57.474 13.964C55.626 13.964 54.254 15.378 54.254 17.338C54.254 19.298 55.626 20.726 57.474 20.726C58.426 20.726 59.266 20.278 59.686 19.886V18.43H56.9V16.988H61.324V20.488C60.4 21.51 59.098 22.182 57.474 22.182ZM66.0392 22.168C63.8972 22.168 62.5672 20.558 62.5672 18.612C62.5672 16.68 63.8972 15.07 66.0392 15.07C68.2092 15.07 69.5252 16.68 69.5252 18.612C69.5252 20.558 68.2092 22.168 66.0392 22.168ZM66.0392 20.866C67.2992 20.866 67.9992 19.816 67.9992 18.612C67.9992 17.422 67.2992 16.372 66.0392 16.372C64.7932 16.372 64.0932 17.422 64.0932 18.612C64.0932 19.816 64.7932 20.866 66.0392 20.866ZM74.0645 22.168C71.9225 22.168 70.5925 20.558 70.5925 18.612C70.5925 16.68 71.9225 15.07 74.0645 15.07C76.2345 15.07 77.5505 16.68 77.5505 18.612C77.5505 20.558 76.2345 22.168 74.0645 22.168ZM74.0645 20.866C75.3245 20.866 76.0245 19.816 76.0245 18.612C76.0245 17.422 75.3245 16.372 74.0645 16.372C72.8185 16.372 72.1185 17.422 72.1185 18.612C72.1185 19.816 72.8185 20.866 74.0645 20.866ZM81.7819 24.744C80.6339 24.744 79.7799 24.492 78.9539 23.736L79.6399 22.672C80.1859 23.302 80.8859 23.54 81.7819 23.54C82.7479 23.54 83.7839 23.092 83.7839 21.706V20.894C83.2659 21.566 82.4959 22.014 81.6139 22.014C79.8919 22.014 78.6179 20.768 78.6179 18.542C78.6179 16.358 79.8779 15.07 81.6139 15.07C82.4679 15.07 83.2379 15.462 83.7839 16.176V15.238H85.2539V21.65C85.2539 24.086 83.4479 24.744 81.7819 24.744ZM82.0479 20.712C82.7339 20.712 83.4619 20.306 83.7839 19.802V17.282C83.4619 16.778 82.7339 16.372 82.0479 16.372C80.8859 16.372 80.1439 17.24 80.1439 18.542C80.1439 19.844 80.8859 20.712 82.0479 20.712ZM88.629 22H87.159V12.662H88.629V22ZM93.658 22.168C91.628 22.168 90.116 20.754 90.116 18.612C90.116 16.652 91.544 15.07 93.546 15.07C95.576 15.07 96.878 16.624 96.878 18.752V19.102H91.656C91.768 20.124 92.538 20.964 93.812 20.964C94.47 20.964 95.254 20.698 95.73 20.222L96.402 21.188C95.73 21.832 94.736 22.168 93.658 22.168ZM95.45 18.066C95.422 17.268 94.876 16.274 93.546 16.274C92.286 16.274 91.712 17.24 91.642 18.066H95.45Z" fill="#393939"/>
<defs>
<filter id="filter0_d_10_51" x="0" y="0" width="131" height="45" filterUnits="userSpaceOnUse" color-interpolation-filters="sRGB">
<feFlood flood-opacity="0" result="BackgroundImageFix"/>
<feColorMatrix in="SourceAlpha" type="matrix" values="0 0 0 0 0 0 0 0 0 0 0 0 0 0 0 0 0 0 127 0" result="hardAlpha"/>
<feOffset dy="4"/>
<feGaussianBlur stdDeviation="2"/>
<feComposite in2="hardAlpha" operator="out"/>
<feColorMatrix type="matrix" values="0 0 0 0 0 0 0 0 0 0 0 0 0 0 0 0 0 0 0.25 0"/>
<feBlend mode="normal" in2="BackgroundImageFix" result="effect1_dropShadow_10_51"/>
<feBlend mode="normal" in="SourceGraphic" in2="effect1_dropShadow_10_51" result="shape"/>
</filter>
</defs>
</svg>
